<mxfile host="65bd71144e">
    <diagram id="Ht1M8jgEwFfnCIfOTk4-" name="Page-1">
        <mxGraphModel dx="1311" dy="802" grid="1" gridSize="10" guides="1" tooltips="1" connect="1" arrows="1" fold="1" page="1" pageScale="1" pageWidth="827" pageHeight="1169" math="0" shadow="0">
            <root>
                <mxCell id="0"/>
                <mxCell id="1" parent="0"/>
                <mxCell id="jZVaUwOg5UY3L9NAnvdq-71" value="AWS Cloud" style="points=[[0,0],[0.25,0],[0.5,0],[0.75,0],[1,0],[1,0.25],[1,0.5],[1,0.75],[1,1],[0.75,1],[0.5,1],[0.25,1],[0,1],[0,0.75],[0,0.5],[0,0.25]];outlineConnect=0;gradientColor=none;html=1;whiteSpace=wrap;fontSize=12;fontStyle=0;shape=mxgraph.aws4.group;grIcon=mxgraph.aws4.group_aws_cloud_alt;strokeColor=#232F3E;fillColor=none;verticalAlign=top;align=left;spacingLeft=30;fontColor=#232F3E;dashed=0;labelBackgroundColor=none;container=1;pointerEvents=0;collapsible=0;recursiveResize=0;" parent="1" vertex="1">
                    <mxGeometry x="97.5" y="120" width="442.5" height="340" as="geometry"/>
                </mxCell>
                <mxCell id="zNsFo3Li7I948aQq0WSo-4" value="&lt;b&gt;KMS Key:&lt;br&gt;SSE-KMS encryption&lt;/b&gt;" style="sketch=0;points=[[0,0,0],[0.25,0,0],[0.5,0,0],[0.75,0,0],[1,0,0],[0,1,0],[0.25,1,0],[0.5,1,0],[0.75,1,0],[1,1,0],[0,0.25,0],[0,0.5,0],[0,0.75,0],[1,0.25,0],[1,0.5,0],[1,0.75,0]];outlineConnect=0;fontColor=#232F3E;gradientColor=#F54749;gradientDirection=north;fillColor=#C7131F;strokeColor=#ffffff;dashed=0;verticalLabelPosition=bottom;verticalAlign=top;align=center;html=1;fontSize=12;fontStyle=0;aspect=fixed;shape=mxgraph.aws4.resourceIcon;resIcon=mxgraph.aws4.key_management_service;" parent="jZVaUwOg5UY3L9NAnvdq-71" vertex="1">
                    <mxGeometry x="62.500000000000014" y="82" width="68" height="68" as="geometry"/>
                </mxCell>
                <mxCell id="2" value="DynamoDB Table&lt;br&gt;&amp;nbsp;Consumer Policy" style="sketch=0;outlineConnect=0;fontColor=#232F3E;gradientColor=none;fillColor=#3F8624;strokeColor=none;dashed=0;verticalLabelPosition=bottom;verticalAlign=top;align=center;html=1;fontSize=12;fontStyle=1;aspect=fixed;pointerEvents=1;shape=mxgraph.aws4.policy;" parent="jZVaUwOg5UY3L9NAnvdq-71" vertex="1">
                    <mxGeometry x="61.57500000000002" y="225" width="69.85" height="60" as="geometry"/>
                </mxCell>
                <mxCell id="Pjr3WMdlcIu-zuZ9H2YP-44" value="&lt;b&gt;&amp;nbsp; &amp;nbsp; &amp;nbsp; &amp;nbsp; &amp;nbsp; &amp;nbsp; &amp;nbsp; DynamoDB Table&lt;/b&gt;" style="rounded=0;whiteSpace=wrap;html=1;fontSize=12;align=left;labelPosition=center;verticalLabelPosition=middle;verticalAlign=top;container=0;" parent="jZVaUwOg5UY3L9NAnvdq-71" vertex="1">
                    <mxGeometry x="173.92000000000002" y="40" width="247.5" height="282" as="geometry"/>
                </mxCell>
                <mxCell id="zNsFo3Li7I948aQq0WSo-5" value="&lt;b&gt;Table Policy&lt;/b&gt;" style="sketch=0;outlineConnect=0;fontColor=#232F3E;gradientColor=none;fillColor=#3F8624;strokeColor=none;dashed=0;verticalLabelPosition=bottom;verticalAlign=top;align=center;html=1;fontSize=12;fontStyle=0;aspect=fixed;pointerEvents=1;shape=mxgraph.aws4.policy;" parent="jZVaUwOg5UY3L9NAnvdq-71" vertex="1">
                    <mxGeometry x="223.92000000000002" y="110" width="46.57" height="40" as="geometry"/>
                </mxCell>
                <mxCell id="5" value="Hash/Partition &lt;br&gt;Key" style="aspect=fixed;html=1;points=[];align=center;image;fontSize=12;image=img/lib/azure2/security/Key_Vaults.svg;fontStyle=1" vertex="1" parent="jZVaUwOg5UY3L9NAnvdq-71">
                    <mxGeometry x="333.92" y="110" width="50" height="50" as="geometry"/>
                </mxCell>
                <mxCell id="6" value="Range/Sort &lt;br&gt;Key" style="aspect=fixed;html=1;points=[];align=center;image;fontSize=12;image=img/lib/azure2/security/Key_Vaults.svg;fontStyle=1" vertex="1" parent="jZVaUwOg5UY3L9NAnvdq-71">
                    <mxGeometry x="333.92" y="210" width="50" height="50" as="geometry"/>
                </mxCell>
                <mxCell id="7" value="" style="sketch=0;points=[[0,0,0],[0.25,0,0],[0.5,0,0],[0.75,0,0],[1,0,0],[0,1,0],[0.25,1,0],[0.5,1,0],[0.75,1,0],[1,1,0],[0,0.25,0],[0,0.5,0],[0,0.75,0],[1,0.25,0],[1,0.5,0],[1,0.75,0]];outlineConnect=0;fontColor=#232F3E;gradientColor=#4D72F3;gradientDirection=north;fillColor=#3334B9;strokeColor=#ffffff;dashed=0;verticalLabelPosition=bottom;verticalAlign=top;align=center;html=1;fontSize=12;fontStyle=0;aspect=fixed;shape=mxgraph.aws4.resourceIcon;resIcon=mxgraph.aws4.dynamodb;" vertex="1" parent="jZVaUwOg5UY3L9NAnvdq-71">
                    <mxGeometry x="173.92000000000002" y="40" width="40" height="40" as="geometry"/>
                </mxCell>
            </root>
        </mxGraphModel>
    </diagram>
</mxfile>